<svg width="8.000000" height="10.000000" viewBox="0 0 8 10" fill="none" xmlns="http://www.w3.org/2000/svg" xmlns:xlink="http://www.w3.org/1999/xlink">
	<desc>
			Created with Pixso.
	</desc>
	<defs/>
	<path id="Vector" d="M4 10L4.09 10C4.18 9.99 4.28 9.97 4.37 9.93C4.44 9.91 4.5 9.87 4.56 9.83C4.6 9.8 4.65 9.77 4.69 9.74L7.68 6.88C7.78 6.78 7.86 6.68 7.91 6.56C7.96 6.44 7.99 6.31 7.99 6.17C8 5.91 7.9 5.65 7.72 5.46C7.54 5.27 7.28 5.16 7.02 5.15C6.75 5.14 6.5 5.24 6.31 5.43L5 6.66L5 1C5 0.73 4.89 0.48 4.7 0.29C4.52 0.1 4.26 0 4 0C3.73 0 3.48 0.1 3.29 0.29C3.1 0.48 3 0.73 3 1L3 6.59L1.71 5.29C1.62 5.19 1.51 5.12 1.38 5.07C1.26 5.02 1.13 4.99 1 4.99C0.87 4.99 0.74 5.02 0.62 5.07C0.49 5.12 0.38 5.19 0.29 5.29C0.2 5.38 0.12 5.49 0.07 5.61C0.02 5.73 0 5.86 0 6C0 6.13 0.02 6.26 0.07 6.38C0.12 6.5 0.2 6.61 0.29 6.71L3.29 9.71C3.38 9.79 3.49 9.87 3.61 9.92C3.73 9.97 3.86 9.99 4 10Z" fill="#FFFFFF" fill-opacity="1.000000" fill-rule="nonzero"/>
</svg>
