<svg width="13.000000" height="3.000000" viewBox="0 0 13 3" fill="none" xmlns="http://www.w3.org/2000/svg" xmlns:xlink="http://www.w3.org/1999/xlink">
	<desc>
			Created with Pixso.
	</desc>
	<defs/>
	<path id="Vector" d="M1.5 3C1.1 3 0.72 2.84 0.43 2.56C0.15 2.27 0 1.89 0 1.5C0 1.1 0.15 0.72 0.43 0.43C0.72 0.15 1.1 0 1.5 0C1.89 0 2.27 0.15 2.56 0.43C2.84 0.72 3 1.1 3 1.5C3 1.89 2.84 2.27 2.56 2.56C2.27 2.84 1.89 3 1.5 3ZM6.5 3C6.1 3 5.72 2.84 5.43 2.56C5.15 2.27 5 1.89 5 1.5C5 1.1 5.15 0.72 5.43 0.43C5.72 0.15 6.1 0 6.5 0C6.89 0 7.27 0.15 7.56 0.43C7.84 0.72 8 1.1 8 1.5C8 1.89 7.84 2.27 7.56 2.56C7.27 2.84 6.89 3 6.5 3ZM11.5 3C11.1 3 10.72 2.84 10.43 2.56C10.15 2.27 10 1.89 10 1.5C10 1.1 10.15 0.72 10.43 0.43C10.72 0.15 11.1 0 11.5 0C11.89 0 12.27 0.15 12.56 0.43C12.84 0.72 13 1.1 13 1.5C13 1.89 12.84 2.27 12.56 2.56C12.27 2.84 11.89 3 11.5 3Z" fill="#898290" fill-opacity="1.000000" fill-rule="nonzero"/>
</svg>
