<svg width="80.000000" height="195.000000" viewBox="0 0 80 195" fill="none" xmlns="http://www.w3.org/2000/svg" xmlns:xlink="http://www.w3.org/1999/xlink">
	<desc>
			Created with Pixso.
	</desc>
	<defs/>
	<path id="Subtract" d="M25.3051 0L10 0C4.47717 0 0 4.47714 0 10L0 50.2091L46.5455 0L33.55 0L0.0733643 36.1118L0.0733643 27.2177L25.3051 0ZM54.7905 0L0 59.1031L0 185C0 185.974 0.139282 186.916 0.399048 187.806L80 101.94L80 87.8424L0.0733643 174.06L0.0733643 165.166L80 78.9484L80 64.851L0.0733643 151.069L0.0733643 142.175L80 55.957L80 41.8596L0.0733643 128.077L0.0733643 119.183L80 32.9656L80 18.8682L0.0733643 105.086L0.0733643 96.1919L80 9.97421C79.9906 6.26678 77.9637 3.03354 74.9592 1.31436L0.0733643 82.0945L0.0733643 73.2005L67.9326 0L54.7905 0ZM80 110.834L3.89954 192.924C5.58765 194.226 7.70349 195 10 195L15.0439 195L80 124.931L80 110.834ZM80 133.825L23.2889 195L36.3577 195L80 147.923L80 133.825ZM80 156.817L44.6028 195L57.6715 195L80 170.914L80 156.817ZM80 179.808L65.9165 195L70 195C75.5228 195 80 190.523 80 185L80 179.808Z" clip-rule="evenodd" fill="#4AB6E8" fill-opacity="1.000000" fill-rule="evenodd"/>
</svg>
